HIERARCHY
ROOT Hips
{
	OFFSET -0.001795 -0.223333 0.028219
	CHANNELS 6 Xposition Yposition Zposition Zrotation Yrotation Xrotation 
	JOINT LeftUpLeg
	{
		OFFSET 0.069520 -0.091406 -0.006815
		CHANNELS 3 Zrotation Yrotation Xrotation
		JOINT LeftLeg
		{
			OFFSET 0.034277 -0.375199 -0.004496
			CHANNELS 3 Zrotation Yrotation Xrotation
			JOINT LeftFoot
			{
				OFFSET -0.013596 -0.397961 -0.043693
				CHANNELS 3 Zrotation Yrotation Xrotation
				JOINT LeftToe
				{
					OFFSET 0.026358 -0.055791 0.119288
					CHANNELS 3 Zrotation Yrotation Xrotation
					End Site
					{
						OFFSET 0.000000 0.000000 0.000000
					}
				}
			}
		}
	}
	JOINT RightUpLeg
	{
		OFFSET -0.067670 -0.090522 -0.004320
		CHANNELS 3 Zrotation Yrotation Xrotation
		JOINT RightLeg
		{
			OFFSET -0.038290 -0.382569 -0.008850
			CHANNELS 3 Zrotation Yrotation Xrotation
			JOINT RightFoot
			{
				OFFSET 0.015774 -0.398415 -0.042312
				CHANNELS 3 Zrotation Yrotation Xrotation
				JOINT RightToe
				{
					OFFSET -0.025372 -0.048144 0.123348
					CHANNELS 3 Zrotation Yrotation Xrotation
					End Site
					{
						OFFSET 0.000000 0.000000 0.000000
					}
				}
			}
		}
	}
	JOINT Spine
	{
		OFFSET -0.002533 0.108963 -0.026696
		CHANNELS 3 Zrotation Yrotation Xrotation
		JOINT Spine1
		{
			OFFSET 0.005487 0.135180 0.001092
			CHANNELS 3 Zrotation Yrotation Xrotation
			JOINT Spine2
			{
				OFFSET 0.001457 0.052922 0.025425
				CHANNELS 3 Zrotation Yrotation Xrotation
				JOINT Neck
				{
					OFFSET -0.002778 0.213870 -0.042857
					CHANNELS 3 Zrotation Yrotation Xrotation
					JOINT Head
					{
						OFFSET 0.005152 0.064970 0.051349
						CHANNELS 3 Zrotation Yrotation Xrotation
						End Site
						{
							OFFSET 0.000000 0.000000 0.000000
						}
					}
				}
				JOINT LeftShoulder
				{
					OFFSET 0.078845 0.121749 -0.034090
					CHANNELS 3 Zrotation Yrotation Xrotation
					JOINT LeftArm
					{
						OFFSET 0.090977 0.030469 -0.008868
						CHANNELS 3 Zrotation Yrotation Xrotation
						JOINT LeftForeArm
						{
							OFFSET 0.259612 -0.012772 -0.027456
							CHANNELS 3 Zrotation Yrotation Xrotation
							JOINT LeftHand
							{
								OFFSET 0.249234 0.008986 -0.001171
								CHANNELS 3 Zrotation Yrotation Xrotation
								End Site
								{
									OFFSET 0.000000 0.000000 0.000000
								}
							}
						}
					}
				}
				JOINT RightShoulder
				{
					OFFSET -0.081759 0.118833 -0.038615
					CHANNELS 3 Zrotation Yrotation Xrotation
					JOINT RightArm
					{
						OFFSET -0.096012 0.032551 -0.009143
						CHANNELS 3 Zrotation Yrotation Xrotation
						JOINT RightForeArm
						{
							OFFSET -0.253742 -0.013329 -0.021401
							CHANNELS 3 Zrotation Yrotation Xrotation
							JOINT RightHand
							{
								OFFSET -0.255298 0.007772 -0.005559
								CHANNELS 3 Zrotation Yrotation Xrotation
								End Site
								{
									OFFSET 0.000000 0.000000 0.000000
								}
							}
						}
					}
				}
			}
		}
	}
}
MOTION
Frames: 6
Frame Time: 0.050000
0.072470 0.941640 0.050926 -2.958472 10.325464 4.952166 4.688498 -1.034875 -14.399502 -1.493992 -0.419375 14.041428 1.473967 1.534200 -2.825152 0.000000 0.000000 0.000000 -4.330625 0.995276 -19.667966 0.120787 0.233681 11.748215 -2.976240 -8.700312 7.813943 0.000000 0.000000 0.000000 0.592071 -0.408900 7.386821 -1.208281 0.496509 0.943585 2.490519 1.313306 7.777421 6.586954 -0.873698 -25.592694 0.000000 0.000000 0.000000 -27.217435 -12.069284 2.611624 -40.126409 -2.783269 -3.319284 -87.418130 -75.224638 74.821777 0.000000 0.000000 0.000000 26.577804 11.258103 7.226193 42.497977 4.406801 -3.615718 104.412010 77.287177 98.677753 0.000000 0.000000 0.000000 
0.085695 0.944686 0.050338 -3.283379 9.441323 4.730037 3.632845 -0.884256 -11.625874 -0.591172 -0.358993 9.868737 1.276617 2.045590 -1.191399 0.000000 0.000000 0.000000 -4.244592 0.978145 -17.690126 -0.148062 0.278357 9.624077 -2.706041 -8.426000 9.190422 0.000000 0.000000 0.000000 0.004055 -0.202720 4.526400 -0.851619 0.372714 0.188317 2.239533 0.720138 7.706957 6.536754 -1.067420 -24.800091 0.000000 0.000000 0.000000 -25.528830 -10.279749 1.946926 -42.423008 -3.003909 -3.633379 -87.179580 -71.747950 71.332710 0.000000 0.000000 0.000000 26.049148 8.985553 5.318305 44.844403 2.160350 -4.400687 104.612084 71.061785 91.948760 0.000000 0.000000 0.000000 
0.097916 0.946796 0.049634 -3.697853 8.504400 5.107456 3.011006 -0.790034 -10.051217 -0.093017 -0.251610 6.242133 1.198459 2.597335 0.130768 0.000000 0.000000 0.000000 -3.921523 1.011369 -16.477421 -0.344948 0.293397 7.949777 -2.709976 -8.758971 10.622131 0.000000 0.000000 0.000000 -0.267962 -0.060064 1.649685 -1.152657 0.526631 -0.038829 2.586340 0.165111 7.689141 6.115948 -1.061239 -24.173851 0.000000 0.000000 0.000000 -24.424628 -8.555385 1.371831 -44.156562 -3.093841 -3.925480 -89.028070 -69.110746 70.809323 0.000000 0.000000 0.000000 24.743012 7.468242 3.864667 46.953538 0.573504 -4.988989 106.637925 66.450115 88.629381 0.000000 0.000000 0.000000 
0.109144 0.948418 0.048518 -4.067709 7.613652 5.113066 2.739103 -0.678852 -8.504091 0.075784 -0.132120 3.131477 1.195045 3.574544 2.141279 0.000000 0.000000 0.000000 -3.531877 1.010717 -14.935704 -0.898602 0.345668 6.102197 -2.602729 -8.855482 11.882328 0.000000 0.000000 0.000000 -0.694098 0.036287 -0.638269 -0.765409 0.358044 -0.251743 2.385792 -0.130457 7.501027 6.462736 -1.399181 -23.612007 0.000000 0.000000 0.000000 -23.046013 -6.951577 0.755625 -45.949968 -2.972561 -4.240808 -90.593977 -66.749819 70.115719 0.000000 0.000000 0.000000 23.765520 6.191928 2.777904 48.493335 -0.635457 -5.476675 108.732689 63.259483 86.941754 0.000000 0.000000 0.000000 
0.119526 0.948505 0.046926 -4.325519 6.759549 5.295160 2.617138 -0.608155 -7.536832 0.035661 -0.040214 0.965815 1.219782 4.011048 3.046781 0.000000 0.000000 0.000000 -3.667638 0.984422 -14.283210 -1.062382 0.340368 5.108998 -2.437726 -8.802562 12.758401 0.000000 0.000000 0.000000 -0.630171 0.074052 -1.795114 -1.231432 0.572956 -0.160020 2.956573 -0.709899 7.514067 5.818728 -1.233201 -23.338007 0.000000 0.000000 0.000000 -22.633429 -5.859728 0.534917 -46.814647 -3.139760 -4.388134 -93.043611 -66.006696 72.213688 0.000000 0.000000 0.000000 22.816648 6.084895 2.312120 49.265143 -0.392865 -5.350425 111.320130 62.219822 87.986056 0.000000 0.000000 0.000000 
0.128978 0.948392 0.044948 -4.510430 5.947109 5.264629 2.476285 -0.546372 -6.690506 0.201448 -0.003667 -0.444161 1.210835 4.397915 4.058506 0.000000 0.000000 0.000000 -3.635857 0.993011 -14.088076 -1.215807 0.368458 5.126253 -2.320467 -8.699144 12.773403 0.000000 0.000000 0.000000 -0.873743 0.099847 -2.549310 -0.932743 0.446558 -0.462755 2.778837 -0.616406 7.660356 5.768307 -1.306890 -22.826016 0.000000 0.000000 0.000000 -21.939483 -5.434520 0.430666 -47.416881 -2.899141 -4.583374 -94.946812 -65.902065 74.078446 0.000000 0.000000 0.000000 22.954736 5.984280 2.160735 48.590933 0.661988 -4.867172 117.008467 62.797340 95.002233 0.000000 0.000000 0.000000 
